<svg width="32" height="32" viewBox="0 0 32 32" fill="none" xmlns="http://www.w3.org/2000/svg">
<path d="M16 32C24.8366 32 32 24.8366 32 16C32 7.16344 24.8366 0 16 0C7.16344 0 0 7.16344 0 16C0 24.8366 7.16344 32 16 32Z" fill="#1D84FF"/>
<path d="M8.00064 17.7286C8.00064 16.0599 8.00532 14.3865 8.00064 12.7217C8.00064 12.295 8.12232 11.9523 8.44291 11.6546C9.59111 10.5875 10.7253 9.50556 11.8649 8.42989C11.9881 8.31408 12.1184 8.14154 12.2791 8.08169C12.8189 7.88117 12.9686 8.04749 12.9686 8.60632C12.9686 11.9577 12.9733 15.3083 12.9608 18.6597C12.9608 18.9768 13.0334 19.0677 13.3625 19.0662C16.7642 19.0576 20.1659 19.0662 23.5684 19.0662C23.988 19.0662 24.0489 19.1144 23.9709 19.538C23.9241 19.7882 23.7704 19.9903 23.5965 20.173C22.4971 21.3264 21.4004 22.4816 20.3063 23.6386C20.0536 23.9067 19.7486 24 19.3991 24C15.9842 24 12.5692 24 9.15429 24C8.36725 24 8.0061 23.6114 8.00454 22.8109C8.00038 21.1181 7.99908 19.424 8.00064 17.7286ZM16.796 15.8049H23.3992C23.731 15.8049 24 15.5416 24 15.2168V8.5881C24 8.2633 23.731 8 23.3992 8H16.796C16.4641 8 16.1951 8.2633 16.1951 8.5881V15.2168C16.1951 15.5416 16.4641 15.8049 16.796 15.8049Z" fill="white"/>
</svg>
